<?xml version="1.0" ?><!DOCTYPE svg  PUBLIC '-//W3C//DTD SVG 1.1//EN'  'http://www.w3.org/Graphics/SVG/1.1/DTD/svg11.dtd'><svg enable-background="new 0 0 24 24" height="24px" id="Layer_1" version="1.1" viewBox="0 0 24 24" width="24px" xml:space="preserve" xmlns="http://www.w3.org/2000/svg" xmlns:xlink="http://www.w3.org/1999/xlink"><g><path d="M20,21.1l-4-1.6l4-1.6c0.5-0.2,0.8-0.8,0.6-1.3l-0.4-0.9c-0.2-0.5-0.8-0.8-1.3-0.6l-7,2.8l-7-2.8c-0.5-0.2-1.1,0-1.3,0.6   l-0.4,0.9c-0.2,0.5,0,1.1,0.6,1.3l4,1.6l-4,1.6c-0.5,0.2-0.8,0.8-0.6,1.3l0.4,0.9c0.2,0.5,0.8,0.8,1.3,0.6l7-2.8l7,2.8   c0.5,0.2,1.1,0,1.3-0.6l0.4-0.9C20.8,21.9,20.5,21.3,20,21.1z"/><path d="M12,16c3.3,0,6-2.7,6-6s-4-5-3-10C8.1,0,6,8,6,10C6,13.3,8.7,16,12,16z M14,1c-0.7,4,3,6.2,3,9s-2.2,5-5,5s-5-2.2-5-5   S10,1,14,1z"/><path d="M16,10h-1c0,1.7-1.3,3-3,3v1C14.2,14,16,12.2,16,10z"/></g></svg>